<?xml version="1.0" encoding="UTF-8"?>
<svg width="1440" height="760" viewBox="0 0 1440 760" fill="none" xmlns="http://www.w3.org/2000/svg" aria-hidden="true">
  <defs>
    <linearGradient id="g" x1="0" y1="0" x2="1" y2="1">
      <stop offset="0%" stop-color="#1E847F" stop-opacity="0.35"/>
      <stop offset="100%" stop-color="#1E847F" stop-opacity="0.12"/>
    </linearGradient>
    <filter id="blur" x="-10%" y="-10%" width="120%" height="120%">
      <feGaussianBlur stdDeviation="1.5"/>
    </filter>
  </defs>
  <g filter="url(#blur)" stroke="url(#g)" stroke-width="5" stroke-linecap="round" fill="none">
    <path vector-effect="non-scaling-stroke" d="M0 120 C 240 80, 480 200, 720 140 C 960 100, 1200 200, 1440 150" />
    <path vector-effect="non-scaling-stroke" d="M0 260 C 240 220, 480 340, 720 280 C 960 240, 1200 340, 1440 300" />
    <path vector-effect="non-scaling-stroke" d="M0 400 C 240 360, 480 480, 720 420 C 960 380, 1200 480, 1440 460" />
    <path vector-effect="non-scaling-stroke" d="M0 540 C 240 500, 480 620, 720 560 C 960 520, 1200 620, 1440 600" />
  </g>
</svg>
